<?xml version="1.0" encoding="UTF-8" ?>
<svg height="2448" version="1.1" width="3264" xmlns="http://www.w3.org/2000/svg" xmlns:cc="http://creativecommons.org/ns#" xmlns:dc="http://purl.org/dc/elements/1.1/" xmlns:rdf="http://www.w3.org/1999/02/22-rdf-syntax-ns#" xmlns:svg="http://www.w3.org/2000/svg">
 <defs>
  <style type="text/css">
<![CDATA[
path {   fill: none;   stroke: black;   stroke-width: 1px;} text {   fill: black;   font-family: Arial,sans;   stroke-width: 0px;} #karterl {   stroke: black;   fill: none;   stroke-width: 1px;} .black { stroke: black; } .red { stroke: red; } .blue { stroke: blue; } .green { stroke: green; } .crossing { fill: #0080ff; stroke-width: 0px;fill-opacity: 0.2; } .endPoint { fill: #00ffff; stroke-width: 0px;fill-opacity: 0.2; } 
]]>  </style>
 </defs>
 <g id="connectors">
  <g id="karterl">
   <g id="38">
    <path class="karterl" d="M1971 664 L1971 664 L1971 450 L2381 450 L2381 664  Z"/>
    <path class="marker" d="M2000 648 L2000 648 L2000 465 L2175 465 L2175 648  Z"/>
    <path class="roi" d="M1885 749 L1885 749 L1885 364 L2466 364 L2466 749  Z"/>
    <text x="2088" y="557">
38    </text>
   </g>
   <g id="50">
    <path class="karterl" d="M809 793 L809 793 L809 572 L1213 572 L1213 793  Z"/>
    <path class="marker" d="M838 777 L838 777 L838 588 L1011 588 L1011 777  Z"/>
    <path class="roi" d="M720 881 L720 881 L720 483 L1301 483 L1301 881  Z"/>
    <text x="924" y="682">
50    </text>
   </g>
   <g id="15">
    <path class="karterl" d="M1943 930 L1943 930 L1964 690 L2378 726 L2357 966  Z"/>
    <path class="marker" d="M1975 915 L1975 915 L1993 710 L2170 726 L2152 931  Z"/>
    <path class="roi" d="M1839 1017 L1839 1017 L1877 586 L2482 639 L2445 1070  Z"/>
    <text x="2072" y="821">
15    </text>
   </g>
   <g id="3">
    <path class="karterl" d="M727 1122 L727 1122 L727 866 L1170 866 L1170 1122  Z"/>
    <path class="marker" d="M759 1103 L759 1103 L759 884 L949 884 L949 1103  Z"/>
    <path class="roi" d="M624 1225 L624 1225 L624 763 L1273 763 L1273 1225  Z"/>
    <text x="854" y="994">
3    </text>
   </g>
   <g id="17">
    <path class="karterl" d="M1463 1147 L1463 1147 L1463 912 L1887 912 L1887 1147  Z"/>
    <path class="marker" d="M1494 1130 L1494 1130 L1494 929 L1675 929 L1675 1130  Z"/>
    <path class="roi" d="M1369 1241 L1369 1241 L1369 818 L1981 818 L1981 1241  Z"/>
    <text x="1585" y="1029">
17    </text>
   </g>
   <g id="33">
    <path class="karterl" d="M1937 1237 L1937 1237 L1937 982 L2389 982 L2389 1237  Z"/>
    <path class="marker" d="M1970 1218 L1970 1218 L1970 1001 L2163 1001 L2163 1218  Z"/>
    <path class="roi" d="M1836 1339 L1836 1339 L1836 881 L2491 881 L2491 1339  Z"/>
    <text x="2067" y="1110">
33    </text>
   </g>
   <g id="18">
    <path class="karterl" d="M603 1428 L603 1428 L603 1165 L1061 1165 L1061 1428  Z"/>
    <path class="marker" d="M637 1409 L637 1409 L637 1184 L833 1184 L833 1409  Z"/>
    <path class="roi" d="M498 1533 L498 1533 L498 1060 L1166 1060 L1166 1533  Z"/>
    <text x="735" y="1296">
18    </text>
   </g>
   <g id="42">
    <path class="karterl" d="M1464 1467 L1464 1467 L1453 1206 L1897 1189 L1907 1450  Z"/>
    <path class="marker" d="M1495 1447 L1495 1447 L1486 1224 L1675 1217 L1684 1440  Z"/>
    <path class="roi" d="M1363 1576 L1363 1576 L1345 1106 L1997 1080 L2015 1550  Z"/>
    <text x="1585" y="1332">
42    </text>
   </g>
   <g id="45">
    <path class="karterl" d="M1956 1572 L1956 1572 L1956 1300 L2417 1300 L2417 1572  Z"/>
    <path class="marker" d="M1990 1553 L1990 1553 L1990 1320 L2186 1320 L2186 1553  Z"/>
    <path class="roi" d="M1847 1681 L1847 1681 L1847 1192 L2526 1192 L2526 1681  Z"/>
    <text x="2088" y="1436">
45    </text>
   </g>
   <g id="41">
    <path class="karterl" d="M2506 1639 L2506 1639 L2453 1356 L2919 1268 L2972 1551  Z"/>
    <path class="marker" d="M2536 1612 L2536 1612 L2491 1370 L2690 1332 L2736 1574  Z"/>
    <path class="roi" d="M2414 1773 L2414 1773 L2318 1264 L3011 1133 L3107 1642  Z"/>
    <text x="2613" y="1472">
41    </text>
   </g>
   <g id="60">
    <path class="karterl" d="M1452 1816 L1452 1816 L1446 1520 L1907 1510 L1913 1807  Z"/>
    <path class="marker" d="M1485 1794 L1485 1794 L1480 1540 L1677 1537 L1682 1790  Z"/>
    <path class="roi" d="M1336 1937 L1336 1937 L1325 1403 L2023 1389 L2033 1923  Z"/>
    <text x="1581" y="1665">
60    </text>
   </g>
   <g id="44">
    <path class="karterl" d="M301 1794 L301 1794 L526 1530 L947 1889 L721 2153  Z"/>
    <path class="marker" d="M348 1801 L348 1801 L540 1575 L720 1728 L527 1954  Z"/>
    <path class="roi" d="M105 1809 L105 1809 L511 1334 L1143 1873 L737 2349  Z"/>
    <text x="534" y="1764">
44    </text>
   </g>
   <g id="9">
    <path class="karterl" d="M1953 1943 L1953 1943 L1953 1634 L2456 1634 L2456 1943  Z"/>
    <path class="marker" d="M1990 1920 L1990 1920 L1990 1656 L2204 1656 L2204 1920  Z"/>
    <path class="roi" d="M1830 2066 L1830 2066 L1830 1510 L2579 1510 L2579 2066  Z"/>
    <text x="2097" y="1788">
9    </text>
   </g>
   <g id="30">
    <path class="karterl" d="M2530 2002 L2530 2002 L2492 1692 L3008 1629 L3046 1940  Z"/>
    <path class="marker" d="M2565 1975 L2565 1975 L2533 1710 L2753 1683 L2785 1949  Z"/>
    <path class="roi" d="M2421 2142 L2421 2142 L2353 1583 L3117 1490 L3185 2048  Z"/>
    <text x="2659" y="1829">
30    </text>
   </g>
   <g id="39">
    <path class="karterl" d="M1430 2192 L1430 2192 L1430 1869 L1941 1869 L1941 2192  Z"/>
    <path class="marker" d="M1467 2169 L1467 2169 L1467 1893 L1685 1893 L1685 2169  Z"/>
    <path class="roi" d="M1301 2321 L1301 2321 L1301 1740 L2070 1740 L2070 2321  Z"/>
    <text x="1576" y="2031">
39    </text>
   </g>
   <g id="51">
    <path class="karterl" d="M14 2121 L14 2121 L255 1831 L685 2188 L444 2478  Z"/>
    <path class="marker" d="M63 2126 L63 2126 L269 1878 L452 2031 L246 2279  Z"/>
    <path class="roi" d="M-199 2141 L-199 2141 L235 1618 L898 2168 L464 2691  Z"/>
    <text x="257" y="2079">
51    </text>
   </g>
  </g>
  <path class="connector" d="M1983 669 L1983 669 L2013 669 L2023 671 M1983 669 L1983 669 L1978 664 M1983 669 L1983 669 L1978 673 M2045 670 L2045 670 L2023 671 L2023 671 L2021 687 M2045 670 L2045 670 L2067 671 M2045 670 L2045 670 L2045 671 L2067 671 L2084 671 L2067 671 L2067 672 M2084 671 L2084 671 L2106 671 L2107 673 M2084 671 L2084 671 L2105 676 L2107 673 L2107 673 L2131 676 L2131 676 L2159 678 L2177 680 M2131 676 L2131 676 L2127 681 M2177 680 L2177 680 L2187 687 M2177 680 L2177 680 L2166 692 M2187 687 L2187 687 L2200 687 L2187 687 L2184 692 M2200 687 L2200 687 L2229 688 L2230 688 M2200 687 L2200 687 L2200 694 M2242 687 L2242 687 L2230 688 L2230 688 L2230 692 M2242 687 L2242 687 L2272 687 L2242 687 L2242 693 M2285 686 L2285 686 L2272 687 L2272 687 L2272 691 M2285 686 L2285 686 L2314 687 L2344 687 L2373 688 L2389 689 M2285 686 L2285 686 L2284 690 M2389 689 L2389 689 L2390 685 M2389 689 L2389 689 L2389 691 M2039 696 L2039 696 L2045 696 M1982 691 L1982 691 L2010 693 L2027 694 M2028 695 L2028 695 L2033 695 M2051 697 L2051 697 L2055 697 M2062 698 L2062 698 L2064 698 " id="6" isConnector="true" loop="false" thick="5"/>
  <path class="connector" d="M1178 795 L1178 795 L1197 793 M1178 795 L1178 795 L1149 796 L1120 797 L1091 798 L1062 799 L1039 800 M1178 795 L1178 795 L1178 796 M1229 787 L1229 787 L1214 790 M1234 781 L1234 781 L1235 782 L1235 753 L1235 757 M1234 738 L1234 738 L1235 738 L1235 708 L1235 711 M1234 683 L1234 683 L1234 684 L1234 579 L1234 609 L1234 639 L1234 669 L1234 671 L1234 558 L1234 559 L1234 673 L1234 678 L1234 704 L1234 707 M1235 714 L1235 714 L1235 721 L1235 723 L1235 726 L1235 745 L1235 746 " id="7" isConnector="true" loop="false" thick="1"/>
  <path class="connector" d="M1961 936 L1961 936 L1978 938 M1961 936 L1961 936 L1957 931 M1961 936 L1961 936 L1955 938 L1978 938 L1987 938 L1978 938 L1977 942 M1987 938 L1987 938 L2015 940 L2032 941 M1987 938 L1987 938 L1985 943 M2032 941 L2032 941 L2042 943 M2032 941 L2032 941 L2034 946 M2042 943 L2042 943 L2050 944 M2042 943 L2042 943 L2038 946 M2050 944 L2050 944 L2058 945 M2050 944 L2050 944 L2048 947 M2058 945 L2058 945 L2065 945 L2058 945 L2057 947 M2065 945 L2065 945 L2092 948 L2093 949 M2065 945 L2065 945 L2064 948 M2093 949 L2093 949 L2098 950 M2093 949 L2093 949 L2091 952 M2098 950 L2098 950 L2124 954 L2137 957 M2098 950 L2098 950 L2095 954 M2137 957 L2137 957 L2151 959 M2137 957 L2137 957 L2130 966 M2151 959 L2151 959 L2159 961 M2151 959 L2151 959 L2143 969 M2159 961 L2159 961 L2171 961 L2159 961 L2154 967 M2171 961 L2171 961 L2182 952 M2171 961 L2171 961 L2171 964 L2171 964 L2180 968 M2171 964 L2171 964 L2164 974 M2180 968 L2180 968 L2208 970 L2214 971 M2180 968 L2180 968 L2175 974 M2214 971 L2214 971 L2243 972 L2244 972 M2214 971 L2214 971 L2212 974 M2244 972 L2244 972 L2254 973 M2244 972 L2244 972 L2245 978 M2254 973 L2254 973 L2256 973 L2254 973 L2251 977 M2256 973 L2256 973 L2284 975 L2313 976 L2341 978 L2369 980 L2391 981 M2256 973 L2256 973 L2256 979 M2391 981 L2391 981 L2393 977 M2391 981 L2391 981 L2391 985 " id="8" isConnector="true" loop="false" thick="5"/>
  <path class="connector" d="M1175 1093 L1175 1093 L1176 1064 L1176 1034 L1175 1005 L1175 975 L1174 946 L1173 917 L1173 887 L1172 858 L1172 851 M1175 1093 L1175 1093 L1171 1093 L1175 1093 L1175 1094 " id="9" isConnector="true" loop="false" thick="1"/>
  <path class="connector" d="L1959 1241 L1989 1241 L1990 1241 L1959 1241 L1957 1239 M1959 1241 L1959 1241 L1955 1244 M1990 1241 L1990 1241 L2019 1241 L1990 1241 L1990 1246 M2019 1241 L2019 1241 L2025 1241 L2019 1241 L2019 1243 M2025 1241 L2025 1241 L2055 1241 L2080 1242 M2025 1241 L2025 1241 L2025 1245 M2080 1242 L2080 1242 L2096 1243 M2080 1242 L2080 1242 L2078 1250 M2096 1243 L2096 1243 L2112 1245 M2096 1243 L2096 1243 L2090 1250 M2112 1245 L2112 1245 L2140 1247 L2141 1248 M2112 1245 L2112 1245 L2111 1248 L2141 1248 L2152 1249 M2141 1248 L2141 1248 L2135 1255 M2152 1249 L2152 1249 L2171 1253 M2152 1249 L2152 1249 L2142 1260 M2171 1253 L2171 1253 L2181 1259 M2171 1253 L2171 1253 L2168 1258 M2181 1259 L2181 1259 L2183 1259 L2181 1259 L2176 1267 M2183 1259 L2183 1259 L2194 1260 M2183 1259 L2183 1259 L2182 1266 M2194 1260 L2194 1260 L2208 1261 M2194 1260 L2194 1260 L2190 1267 M2208 1261 L2208 1261 L2238 1261 L2240 1261 L2208 1261 L2203 1267 M2240 1261 L2240 1261 L2268 1261 L2268 1261 L2240 1261 L2245 1269 M2268 1261 L2268 1261 L2271 1261 L2268 1261 L2268 1266 M2271 1261 L2271 1261 L2287 1261 L2271 1261 L2271 1263 M2287 1261 L2287 1261 L2295 1261 L2287 1261 L2289 1267 M2295 1261 L2295 1261 L2302 1261 L2295 1261 L2295 1263 M2302 1261 L2302 1261 L2331 1262 L2359 1264 L2359 1264 M2302 1261 L2302 1261 L2302 1263 M2359 1264 L2359 1264 L2387 1264 L2401 1264 L2359 1264 L2359 1265 M2258 1267 L2258 1267 L2256 1268 M2168 1258 L2168 1258 L2160 1265 M2168 1258 L2168 1258 L2167 1265 " id="10" isConnector="true" loop="false" thick="4"/>
  <path class="connector" d="M2216 1597 L2216 1597 L2243 1600 L2245 1601 M2216 1597 L2216 1597 L2213 1593 M2216 1597 L2216 1597 L2213 1601 L2245 1601 L2257 1603 M2245 1601 L2245 1601 L2246 1607 M2257 1603 L2257 1603 L2263 1603 L2257 1603 L2255 1610 M2263 1603 L2263 1603 L2280 1603 L2263 1603 L2263 1611 M2280 1603 L2280 1603 L2287 1603 L2280 1603 L2280 1607 M2287 1603 L2287 1603 L2294 1603 L2287 1603 L2288 1609 M2294 1603 L2294 1603 L2305 1604 M2294 1603 L2294 1603 L2294 1610 M2305 1604 L2305 1604 L2333 1606 L2361 1608 L2389 1610 L2417 1612 L2432 1611 M2305 1604 L2305 1604 L2305 1606 M2255 1610 L2255 1610 L2253 1610 L2255 1610 L2256 1611 L2263 1611 L2261 1612 M2263 1611 L2263 1611 L2265 1613 M2275 1612 L2275 1612 L2276 1612 " id="11" isConnector="true" loop="false" thick="2"/>
  <path class="connector" d="M2985 1603 L2985 1603 L2987 1600 M2985 1603 L2985 1603 L2971 1607 M2985 1603 L2985 1603 L2986 1608 M2971 1607 L2971 1607 L2965 1609 L2965 1609 L2955 1612 M2965 1609 L2965 1609 L2970 1618 M2971 1607 L2971 1607 L2978 1617 L2978 1617 L2980 1617 L2978 1617 L2978 1620 M2947 1612 L2947 1612 L2955 1612 L2955 1612 L2955 1614 M2947 1612 L2947 1612 L2942 1613 M2947 1612 L2947 1612 L2947 1624 M2921 1607 L2921 1607 L2942 1613 L2942 1613 L2942 1623 M2921 1607 L2921 1607 L2909 1610 M2921 1607 L2921 1607 L2919 1615 M2909 1610 L2909 1610 L2903 1611 M2909 1610 L2909 1610 L2918 1617 M2900 1611 L2900 1611 L2903 1611 L2903 1611 L2903 1616 M2885 1611 L2885 1611 L2900 1611 L2900 1611 L2900 1617 M2860 1611 L2860 1611 L2885 1611 L2885 1611 L2884 1617 M2823 1611 L2823 1611 L2852 1610 L2860 1611 L2860 1611 L2858 1615 M2815 1611 L2815 1611 L2823 1611 L2823 1611 L2824 1614 M2815 1611 L2815 1611 L2791 1613 M2815 1611 L2815 1611 L2814 1615 M2787 1613 L2787 1613 L2791 1613 L2791 1613 L2791 1615 M2787 1613 L2787 1613 L2777 1615 M2787 1613 L2787 1613 L2787 1616 M2774 1615 L2774 1615 L2777 1615 L2777 1615 L2779 1618 M2774 1615 L2774 1615 L2769 1619 M2774 1615 L2774 1615 L2774 1619 L2903 1619 L2904 1619 M2919 1615 L2919 1615 L2918 1617 L2918 1617 L2919 1620 L2919 1615 L2920 1615 M2947 1624 L2947 1624 L2946 1625 M2947 1624 L2947 1624 L2949 1624 M2955 1614 L2955 1614 L2969 1622 M2955 1614 L2955 1614 L2955 1622 M2970 1618 L2970 1618 L2969 1622 L2969 1622 L2972 1624 M2970 1618 L2970 1618 L2978 1620 L2978 1620 L2980 1620 L2978 1620 L2978 1623 M2957 1625 L2957 1625 L2959 1625 L2973 1625 L2974 1625 M2981 1621 L2981 1621 L2984 1622 L2984 1610 L2983 1610 M2986 1608 L2986 1608 L2984 1610 L2984 1610 L2984 1613 M2986 1608 L2986 1608 L2989 1611 M2984 1613 L2984 1613 L2987 1616 M2984 1613 L2984 1613 L2984 1614 M2987 1616 L2987 1616 L2990 1617 M2987 1616 L2987 1616 L2987 1618 L2984 1618 L2984 1619 M2988 1621 L2988 1621 L2988 1622 " id="12" isConnector="true" loop="false" thick="2"/>
  <path class="connector" d="M2228 1953 L2228 1953 L2254 1957 L2254 1957 M2228 1953 L2228 1953 L2227 1951 M2228 1953 L2228 1953 L2224 1956 M2254 1957 L2254 1957 L2270 1957 L2254 1957 L2252 1962 M2270 1957 L2270 1957 L2278 1959 M2270 1957 L2270 1957 L2270 1960 M2278 1959 L2278 1959 L2281 1959 L2278 1959 L2277 1963 M2281 1959 L2281 1959 L2308 1960 L2318 1961 M2281 1959 L2281 1959 L2282 1963 M2318 1961 L2318 1961 L2345 1964 L2372 1967 L2400 1969 L2401 1970 M2318 1961 L2318 1961 L2318 1963 M2401 1970 L2401 1970 L2427 1972 L2455 1974 L2459 1975 M2401 1970 L2401 1970 L2401 1973 M2283 1966 L2283 1966 L2281 1966 M2283 1965 L2283 1965 L2283 1966 L2283 1966 L2283 1967 L2283 1965 L2284 1965 L2283 1965 L2283 1964 " id="14" isConnector="true" loop="false" thick="1"/>
  <path class="connector" d="L812 793 L812 811 M813 813 L813 813 L812 814 " id="25" isConnector="true" loop="false" thick="1"/>
  <path class="connector" d="L1905 923 L1905 924 " id="28" isConnector="true" loop="false" thick="1"/>
  <path class="connector" d="M744 1123 L744 1123 L745 1127 " id="29" isConnector="true" loop="false" thick="1"/>
  <path class="connector" d="M1070 1140 L1070 1140 L1071 1169 L1072 1198 L1072 1228 L1073 1257 L1073 1287 L1074 1316 L1074 1346 L1075 1375 L1075 1405 L1063 1411 " id="30" isConnector="true" loop="false" thick="1"/>
  <path class="connector" d="L1475 1147 L1475 1162 " id="31" isConnector="true" loop="false" thick="1"/>
  <path class="connector" d="M1703 1163 L1703 1163 L1732 1164 L1761 1165 L1791 1165 L1818 1166 L1846 1166 L1874 1166 L1902 1167 L1904 1167 L1908 1167 " id="33" isConnector="true" loop="false" thick="1"/>
  <path class="connector" d="L1975 1299 L1996 1292 L2025 1293 L2052 1296 L2080 1298 L2101 1299 " id="35" isConnector="true" loop="false" thick="1"/>
  <path class="connector" d="M2590 1329 L2590 1329 L2563 1332 L2535 1334 L2523 1335 L2521 1335 L2492 1336 L2464 1338 L2462 1353 " id="36" isConnector="true" loop="false" thick="1"/>
  <path class="connector" d="M615 1429 L615 1429 L614 1445 M617 1448 L617 1448 L618 1450 " id="37" isConnector="true" loop="false" thick="1"/>
  <path class="connector" d="M1930 1453 L1930 1453 L1905 1458 L1877 1460 L1848 1461 L1820 1463 L1793 1464 L1765 1466 L1736 1467 L1717 1468 " id="39" isConnector="true" loop="false" thick="1"/>
  <path class="connector" d="M1474 1468 L1474 1468 L1476 1478 L1476 1480 L1477 1482 " id="40" isConnector="true" loop="false" thick="1"/>
  <path class="connector" d="L1924 1561 L1924 1563 M1925 1572 L1925 1572 L1925 1573 L1925 1576 L1925 1581 M1930 1643 L1930 1643 L1930 1647 M1932 1675 L1932 1675 L1932 1676 M1936 1730 L1936 1730 L1936 1732 M1937 1746 L1937 1746 L1937 1747 M1938 1755 L1938 1755 L1938 1756 L1938 1759 L1938 1760 M1939 1770 L1939 1770 L1939 1779 M1940 1783 L1940 1783 L1940 1791 M1942 1811 L1942 1811 L1937 1818 M1893 1820 L1893 1820 L1896 1820 L1891 1820 L1865 1821 M1831 1822 L1831 1822 L1835 1822 L1821 1822 L1828 1822 M1839 1821 L1839 1821 L1841 1822 M1845 1821 L1845 1821 L1847 1822 M1861 1820 L1861 1820 L1850 1821 M1790 1822 L1790 1822 L1790 1823 L1785 1823 L1786 1823 M1898 1820 L1898 1820 L1899 1820 M1905 1819 L1905 1819 L1903 1820 L1911 1820 L1913 1820 M1917 1819 L1917 1819 L1917 1820 M1941 1798 L1941 1798 L1941 1805 " id="42" isConnector="true" loop="false" thick="1"/>
  <path class="connector" d="L1963 1573 L1963 1574 " id="43" isConnector="true" loop="false" thick="1"/>
  <path class="connector" d="L1979 1632 L1992 1615 L2021 1616 L2048 1619 L2076 1621 L2103 1624 L2131 1626 L2158 1629 L2186 1631 L2198 1632 " id="46" isConnector="true" loop="false" thick="1"/>
  <path class="connector" d="M2651 1672 L2651 1672 L2621 1672 L2591 1672 L2561 1672 L2531 1672 L2512 1683 L2512 1689 " id="48" isConnector="true" loop="false" thick="1"/>
  <path class="connector" d="L1453 1817 L1453 1827 " id="49" isConnector="true" loop="false" thick="1"/>
</g>
</svg>
